<svg xmlns="http://www.w3.org/2000/svg">
    <symbol id="icon-logo" viewBox="0 0 66 32">
        <path fill="#fff" style="fill: var(--color1, #fff)" d="M31.043 15.533h-3.242l-1.692 7.78h3.492c2.512 0 3.258-1.383 3.267-2.475 0.008-0.951-0.532-1.34-1.042-1.507l0.017-0.086c0.714-0.157 1.582-0.74 1.591-1.94 0.009-1.156-0.885-1.772-2.392-1.772zM28.412 21.725l0.343-1.545h1.379c0.527 0 0.839 0.216 0.836 0.665-0.004 0.465-0.358 0.881-1.104 0.881h-1.453zM29.097 18.591l0.321-1.47h1.272c0.527 0 0.818 0.2 0.815 0.627-0.004 0.443-0.337 0.843-1.098 0.843h-1.309z"></path>
        <path fill="#fff" style="fill: var(--color1, #fff)" d="M34.446 15.533l-1.692 7.78h5.574l0.37-1.686h-3.551l1.321-6.094h-2.023z"></path>
        <path fill="#fff" style="fill: var(--color1, #fff)" d="M42.262 15.533l-3.814 7.618-0.033 0.162h1.922l0.748-1.621h2.273l0.045 1.621h1.842l0.033-0.162-0.503-7.618h-2.512zM41.842 20.060l1.311-2.837h0.085l0.073 2.837h-1.469z"></path>
        <path fill="#fff" style="fill: var(--color1, #fff)" d="M49.103 15.533h-2.188l-1.692 7.78h2.693c3.391 0 4.502-2.529 4.52-4.69 0.016-2.005-1.3-3.090-3.334-3.090zM47.574 21.671l0.968-4.495h0.484c0.937 0 1.47 0.519 1.462 1.507-0.012 1.443-0.738 2.988-2.292 2.988h-0.623z"></path>
        <path fill="#fff" style="fill: var(--color1, #fff)" d="M53.56 15.533l-1.691 7.78h5.802l0.343-1.588h-3.822l0.337-1.534h3.215l0.343-1.588h-3.21l0.321-1.48h3.747l0.343-1.588h-5.727z"></path>
        <path fill="#fff" style="fill: var(--color1, #fff)" d="M34.163 6.528l-0.359 1.664h2.204l-1.332 6.116h2.001l1.332-6.116h2.204l0.359-1.664h-6.409z"></path>
        <path fill="#fff" style="fill: var(--color1, #fff)" d="M43.964 6.528h-3.146l-1.692 7.78h1.959l0.663-3.058h0.106l1.577 3.058h1.985l0.033-0.162-1.59-2.885c1.939-0.162 2.656-1.28 2.667-2.637 0.011-1.34-0.978-2.096-2.565-2.096zM42.058 9.823l0.376-1.707h1.251c0.607 0 0.951 0.243 0.947 0.719-0.004 0.497-0.359 0.989-1.243 0.989h-1.331z"></path>
        <path fill="#fff" style="fill: var(--color1, #fff)" d="M48.889 6.528l-3.814 7.618-0.033 0.162h1.922l0.748-1.621h2.273l0.045 1.621h1.842l0.033-0.162-0.502-7.618h-2.513zM48.469 11.055l1.311-2.836h0.085l0.073 2.837h-1.469z"></path>
        <path fill="#fff" style="fill: var(--color1, #fff)" d="M55.73 6.528h-2.188l-1.692 7.78h2.694c3.391 0 4.502-2.529 4.52-4.69 0.017-2.005-1.3-3.090-3.334-3.090zM54.201 12.665l0.968-4.495h0.484c0.937 0 1.47 0.519 1.462 1.507-0.011 1.443-0.737 2.988-2.291 2.988h-0.623z"></path>
        <path fill="#fff" style="fill: var(--color1, #fff)" d="M60.188 6.528l-1.692 7.78h5.802l0.343-1.588h-3.822l0.337-1.534h3.215l0.343-1.588h-3.209l0.321-1.48h3.748l0.343-1.588h-5.727z"></path>
        <path fill="#57e1ff" style="fill: var(--color2, #57e1ff)" d="M14.791 18.795l4.765-8.253h-9.53l4.765 8.253z"></path>
        <path fill="#5e47ff" style="fill: var(--color3, #5e47ff)" d="M12.669 23.334l-12.669-21.871 6.293 5.050 8.044 13.933-1.668 2.889z"></path>
        <path fill="#5e47ff" style="fill: var(--color3, #5e47ff)" d="M24.562 10.092l-12.607 21.908 1.227-7.975 8.044-13.933h3.336z"></path>
        <path fill="#5e47ff" style="fill: var(--color3, #5e47ff)" d="M7.222 6.552l25.276-0.036-7.52 2.925h-16.088l-1.668-2.889z"></path>
    </symbol>
    <symbol id="icon-Group" viewBox="0 0 32 32">
        <path d="M12.608 23.221l-12.608-21.765 6.262 5.026 8.005 13.865-1.66 2.875z"></path>
        <path d="M24.443 10.043l-12.545 21.801 1.221-7.936 8.005-13.865h3.319z"></path>
        <path d="M14.72 18.703l4.742-8.213h-9.484l4.742 8.213z"></path>
        <path d="M7.187 6.52l25.153-0.036-7.484 2.911h-16.010l-1.66-2.875z"></path>
    </symbol>
    <symbol id="icon-Ellipse" viewBox="0 0 32 32">
        <path fill="#35ff9e" style="fill: var(--color1, #35ff9e)" d="M32 16c0 8.837-7.163 16-16 16s-16-7.163-16-16c0-8.837 7.163-16 16-16s16 7.163 16 16z"></path>
    </symbol>
    <symbol id="icon-Vector" viewBox="0 0 20 32">
        <path fill="none" stroke="#35ff9e" style="stroke: var(--color1, #35ff9e)" stroke-linejoin="miter" stroke-linecap="butt" stroke-miterlimit="4" stroke-width="3.5556" d="M9.608 2.515l7.619 8M9.608 2.515l-8.381 8M9.608 2.515v28.444"></path>
    </symbol>
    <symbol id="icon-rectangle" viewBox="0 0 32 32">
        <path fill="#6a54ff" style="fill: var(--color1, #6a54ff)" d="M4 1.714h14.286c1.262 0 2.286 1.023 2.286 2.286v14.286c0 1.262-1.023 2.286-2.286 2.286h-14.286c-1.262 0-2.286-1.023-2.286-2.286v-14.286c0-1.262 1.023-2.286 2.286-2.286z"></path>
        <path fill="#57e1ff" style="fill: var(--color2, #57e1ff)" d="M13.714 11.429h14.286c1.262 0 2.286 1.023 2.286 2.286v14.286c0 1.262-1.023 2.286-2.286 2.286h-14.286c-1.262 0-2.286-1.023-2.286-2.286v-14.286c0-1.262 1.023-2.286 2.286-2.286z"></path>
        <path fill="#fff" style="fill: var(--color6, #fff)" opacity="0.5" d="M11.429 13.714c0-1.262 1.023-2.286 2.286-2.286h6.857v6.857c0 1.262-1.023 2.286-2.286 2.286h-4.571c-1.262 0-2.286-1.023-2.286-2.286v-4.571z"></path>
        <path fill="none" stroke="#030718" style="stroke: var(--color5, #030718)" stroke-linejoin="miter" stroke-linecap="butt" stroke-miterlimit="4" stroke-width="0.8571" d="M4 1.714h14.286c1.262 0 2.286 1.023 2.286 2.286v14.286c0 1.262-1.023 2.286-2.286 2.286h-14.286c-1.262 0-2.286-1.023-2.286-2.286v-14.286c0-1.262 1.023-2.286 2.286-2.286z"></path>
        <path fill="none" stroke="#030718" style="stroke: var(--color5, #030718)" stroke-linejoin="miter" stroke-linecap="butt" stroke-miterlimit="4" stroke-width="0.8571" d="M13.714 11.429h14.286c1.262 0 2.286 1.023 2.286 2.286v14.286c0 1.262-1.023 2.286-2.286 2.286h-14.286c-1.262 0-2.286-1.023-2.286-2.286v-14.286c0-1.262 1.023-2.286 2.286-2.286z"></path>
    </symbol>
    <symbol id="icon-tv" viewBox="0 0 32 32">
        <path fill="#6a54ff" style="fill: var(--color1, #6a54ff)" d="M1.714 5.714c0-1.262 1.023-2.286 2.286-2.286h24c1.262 0 2.286 1.023 2.286 2.286v3.429h-28.571v-3.429z"></path>
        <path fill="#6a54ff" style="fill: var(--color1, #6a54ff)" d="M16.571 10.286h13.714v16c0 1.262-1.023 2.286-2.286 2.286h-11.429v-18.286z"></path>
        <path fill="#57e1ff" style="fill: var(--color2, #57e1ff)" d="M1.714 10.286h13.714v18.286h-11.429c-1.262 0-2.286-1.023-2.286-2.286v-16z"></path>
        <path fill="none" stroke="#000" style="stroke: var(--color3, #000)" stroke-linejoin="round" stroke-linecap="round" stroke-miterlimit="4" stroke-width="1.1429" d="M10 22.857l-3.429-3.429 3.429-3.429"></path>
        <path fill="#abf0ff" style="fill: var(--color4, #abf0ff)" d="M5.714 6.286c0 0.631-0.512 1.143-1.143 1.143s-1.143-0.512-1.143-1.143c0-0.631 0.512-1.143 1.143-1.143s1.143 0.512 1.143 1.143z"></path>
        <path fill="#abf0ff" style="fill: var(--color4, #abf0ff)" d="M9.143 6.286c0 0.631-0.512 1.143-1.143 1.143s-1.143-0.512-1.143-1.143c0-0.631 0.512-1.143 1.143-1.143s1.143 0.512 1.143 1.143z"></path>
        <path fill="#abf0ff" style="fill: var(--color4, #abf0ff)" d="M12.571 6.286c0 0.631-0.512 1.143-1.143 1.143s-1.143-0.512-1.143-1.143c0-0.631 0.512-1.143 1.143-1.143s1.143 0.512 1.143 1.143z"></path>
    </symbol>
    <symbol id="icon-wallet" viewBox="0 0 32 32">
        <path fill="#6a54ff" style="fill: var(--color1, #6a54ff)" d="M2.286 9.646c0-1.168 0.881-2.148 2.042-2.273l18.286-1.959c1.351-0.145 2.529 0.914 2.529 2.273v10.096c0 1.168-0.881 2.148-2.042 2.273l-18.286 1.959c-1.351 0.145-2.529-0.914-2.529-2.273v-10.096z"></path>
        <path fill="#abf0ff" style="fill: var(--color4, #abf0ff)" d="M18.286 8c0 1.578-1.279 2.857-2.857 2.857s-2.857-1.279-2.857-2.857c0-1.578 1.279-2.857 2.857-2.857s2.857 1.279 2.857 2.857z"></path>
        <path fill="#abf0ff" style="fill: var(--color4, #abf0ff)" d="M25.143 2.857c0 1.578-1.279 2.857-2.857 2.857s-2.857-1.279-2.857-2.857c0-1.578 1.279-2.857 2.857-2.857s2.857 1.279 2.857 2.857z"></path>
        <path fill="#57e1ff" style="fill: var(--color2, #57e1ff); stroke: var(--color5, #030718)" stroke="#030718" stroke-linejoin="miter" stroke-linecap="butt" stroke-miterlimit="4" stroke-width="1.1429" d="M4.571 8.571h22.857c1.578 0 2.857 1.279 2.857 2.857v16c0 1.578-1.279 2.857-2.857 2.857h-22.857c-1.578 0-2.857-1.279-2.857-2.857v-16c0-1.578 1.279-2.857 2.857-2.857z"></path>
        <path fill="#030718" style="fill: var(--color5, #030718)" d="M27.429 19.429c0 0.947-0.767 1.714-1.714 1.714s-1.714-0.767-1.714-1.714c0-0.947 0.767-1.714 1.714-1.714s1.714 0.767 1.714 1.714z"></path>
    </symbol>
    <symbol id="icon-btn" viewBox="0 0 32 32">
        <path fill="#6a54ff" style="fill: var(--color1, #6a54ff)" d="M-13.714 8h14.857c1.262 0 2.286 1.023 2.286 2.286v11.429c0 1.262-1.023 2.286-2.286 2.286h-14.857c-1.262 0-2.286-1.023-2.286-2.286v-11.429c0-1.262 1.023-2.286 2.286-2.286z"></path>
        <path fill="#6a54ff" style="fill: var(--color1, #6a54ff)" d="M30.857 8h14.857c1.262 0 2.286 1.023 2.286 2.286v11.429c0 1.262-1.023 2.286-2.286 2.286h-14.857c-1.262 0-2.286-1.023-2.286-2.286v-11.429c0-1.262 1.023-2.286 2.286-2.286z"></path>
        <path fill="#57e1ff" style="fill: var(--color2, #57e1ff)" d="M6.857 6.857h18.286c1.262 0 2.286 1.023 2.286 2.286v13.714c0 1.262-1.023 2.286-2.286 2.286h-18.286c-1.262 0-2.286-1.023-2.286-2.286v-13.714c0-1.262 1.023-2.286 2.286-2.286z"></path>
        <path fill="#000" style="fill: var(--color3, #000)" d="M14.198 19.82l5.365-3.059c0.404-0.237 0.605-0.356 0.681-0.506 0.081-0.161 0.081-0.35 0.001-0.511-0.075-0.151-0.277-0.271-0.682-0.512v0l-5.388-3.072c-0.412-0.229-0.619-0.343-0.788-0.331-0.179 0.013-0.341 0.108-0.439 0.259-0.092 0.142-0.092 0.378-0.092 0.849v0 6.118c0 0.474 0 0.711 0.093 0.853 0.098 0.151 0.261 0.246 0.441 0.258 0.169 0.011 0.376-0.105 0.79-0.336l0.018-0.010z"></path>
    </symbol>
    <symbol id="icon-circle" viewBox="0 0 32 32">
        <path fill="#6a54ff" style="fill: var(--color1, #6a54ff)" d="M8.487 7.679c-0.69-0.69-0.67-1.827 0.133-2.382 1.483-1.025 3.19-1.749 5.031-2.085 0.96-0.175 1.778 0.615 1.778 1.591v5.679c0 1.527-1.847 2.292-2.926 1.212l-4.015-4.015zM6.845 6.77c-0.025 0.025-0.050 0.050-0.074 0.074l0.074-0.074zM7.679 8.487c-0.69-0.69-1.827-0.67-2.382 0.133-1.025 1.483-1.749 3.189-2.085 5.031-0.175 0.96 0.615 1.778 1.591 1.778h5.679c1.527 0 2.292-1.847 1.212-2.926l-4.015-4.015zM3 16l0-0.063v0.127l-0-0.063zM7.679 23.513c-0.69 0.69-1.827 0.67-2.382-0.133-1.025-1.483-1.749-3.189-2.085-5.031-0.175-0.96 0.615-1.778 1.591-1.778h5.679c1.527 0 2.292 1.846 1.212 2.926l-4.015 4.015zM6.77 25.155c0.025 0.025 0.049 0.050 0.074 0.074l-0.074-0.074zM8.487 24.321c-0.69 0.69-0.67 1.827 0.133 2.382 1.483 1.025 3.19 1.749 5.031 2.085 0.96 0.175 1.778-0.615 1.778-1.591v-5.679c0-1.527-1.847-2.292-2.926-1.212l-4.015 4.015zM20.306 12.502c-1.080 1.080-0.315 2.926 1.212 2.926h5.679c0.976 0 1.766-0.818 1.591-1.778-0.336-1.842-1.060-3.548-2.085-5.031-0.555-0.803-1.692-0.823-2.382-0.133l-4.015 4.015zM23.513 7.679c0.69-0.69 0.67-1.827-0.133-2.382-1.483-1.025-3.189-1.749-5.031-2.085-0.96-0.175-1.778 0.615-1.778 1.591v5.679c0 1.527 1.846 2.292 2.926 1.212l4.015-4.015zM26.703 23.38c-0.555 0.803-1.692 0.823-2.382 0.133l-4.015-4.015c-1.080-1.080-0.315-2.926 1.212-2.926h5.679c0.976 0 1.766 0.818 1.591 1.778-0.336 1.842-1.060 3.548-2.085 5.031zM19.498 20.306c-1.080-1.080-2.926-0.315-2.926 1.212v5.679c0 0.976 0.818 1.766 1.778 1.591 1.842-0.336 3.548-1.060 5.031-2.085 0.803-0.555 0.823-1.692 0.133-2.382l-4.015-4.015z"></path>
        <path fill="#57e1ff" style="fill: var(--color2, #57e1ff); stroke: var(--color3, #000)" stroke="#000" stroke-linejoin="miter" stroke-linecap="butt" stroke-miterlimit="4" stroke-width="0.5714" d="M18.143 3c0 1.183-0.959 2.143-2.143 2.143s-2.143-0.959-2.143-2.143c0-1.183 0.959-2.143 2.143-2.143s2.143 0.959 2.143 2.143z"></path>
        <path fill="#57e1ff" style="fill: var(--color2, #57e1ff); stroke: var(--color3, #000)" stroke="#000" stroke-linejoin="miter" stroke-linecap="butt" stroke-miterlimit="4" stroke-width="0.5714" d="M18.143 29c0 1.183-0.959 2.143-2.143 2.143s-2.143-0.959-2.143-2.143c0-1.183 0.959-2.143 2.143-2.143s2.143 0.959 2.143 2.143z"></path>
        <path fill="#57e1ff" style="fill: var(--color2, #57e1ff); stroke: var(--color3, #000)" stroke="#000" stroke-linejoin="miter" stroke-linecap="butt" stroke-miterlimit="4" stroke-width="0.5714" d="M8.323 5.293c0.837 0.837 0.837 2.194 0 3.030s-2.194 0.837-3.030 0c-0.837-0.837-0.837-2.194 0-3.030s2.194-0.837 3.030 0z"></path>
        <path fill="#57e1ff" style="fill: var(--color2, #57e1ff); stroke: var(--color3, #000)" stroke="#000" stroke-linejoin="miter" stroke-linecap="butt" stroke-miterlimit="4" stroke-width="0.5714" d="M26.707 23.677c0.837 0.837 0.837 2.194 0 3.030s-2.194 0.837-3.030 0c-0.837-0.837-0.837-2.194 0-3.030s2.194-0.837 3.030 0z"></path>
        <path fill="#57e1ff" style="fill: var(--color2, #57e1ff); stroke: var(--color3, #000)" stroke="#000" stroke-linejoin="miter" stroke-linecap="butt" stroke-miterlimit="4" stroke-width="0.5714" d="M3 13.857c1.183 0 2.143 0.959 2.143 2.143s-0.959 2.143-2.143 2.143c-1.183 0-2.143-0.959-2.143-2.143s0.959-2.143 2.143-2.143z"></path>
        <path fill="#57e1ff" style="fill: var(--color2, #57e1ff); stroke: var(--color3, #000)" stroke="#000" stroke-linejoin="miter" stroke-linecap="butt" stroke-miterlimit="4" stroke-width="0.5714" d="M29 13.857c1.183 0 2.143 0.959 2.143 2.143s-0.959 2.143-2.143 2.143c-1.183 0-2.143-0.959-2.143-2.143s0.959-2.143 2.143-2.143z"></path>
        <path fill="#57e1ff" style="fill: var(--color2, #57e1ff); stroke: var(--color3, #000)" stroke="#000" stroke-linejoin="miter" stroke-linecap="butt" stroke-miterlimit="4" stroke-width="0.5714" d="M5.292 23.677c0.837-0.837 2.194-0.837 3.030 0s0.837 2.194 0 3.030c-0.837 0.837-2.194 0.837-3.030 0s-0.837-2.194 0-3.030z"></path>
        <path fill="#57e1ff" style="fill: var(--color2, #57e1ff); stroke: var(--color3, #000)" stroke="#000" stroke-linejoin="miter" stroke-linecap="butt" stroke-miterlimit="4" stroke-width="0.5714" d="M23.677 5.293c0.837-0.837 2.194-0.837 3.030 0s0.837 2.194 0 3.030c-0.837 0.837-2.194 0.837-3.030 0s-0.837-2.194 0-3.030z"></path>
    </symbol>
    <symbol id="icon-down-vector" viewBox="0 0 32 32">
        <path stroke-linejoin="round" stroke-linecap="round" stroke-miterlimit="4" stroke-width="1.8667" d="M8 12.667l8 8 8-8"></path>
    </symbol>
    <symbol id="icon-up-vector" viewBox="0 0 32 32">
        <path fill="none" stroke="#fff" style="stroke: var(--color1, #fff)" stroke-linejoin="round" stroke-linecap="round" stroke-miterlimit="4" stroke-width="1.8667" d="M8 19.333l8-8 8 8"></path>
    </symbol>
    <symbol id="icon-close" viewBox="0 0 32 32">
        <path fill="#fff" style="fill: var(--color1, #fff)" d="M8.74 8.74c0.364-0.364 0.955-0.364 1.32 0l13.199 13.199c0.364 0.364 0.364 0.955 0 1.32s-0.955 0.364-1.32 0l-13.199-13.199c-0.364-0.365-0.364-0.956 0-1.32z"></path>
        <path fill="#fff" style="fill: var(--color1, #fff)" d="M8.74 23.26c-0.364-0.364-0.364-0.955 0-1.32l13.199-13.199c0.364-0.364 0.955-0.364 1.32 0s0.364 0.955 0 1.32l-13.199 13.199c-0.364 0.364-0.955 0.364-1.32 0z"></path>
    </symbol>
    <symbol id="icon-check-mark" viewBox="0 0 32 32">
        <path fill="none" stroke="#fff" style="stroke: var(--color1, #fff)" stroke-linejoin="round" stroke-linecap="round" stroke-miterlimit="4" stroke-width="3.7333" d="M5.333 17.5l9.899 9.899 14-21"></path>
    </symbol>
    <symbol id="icon-burger" viewBox="0 0 32 32">
        <path fill="#e7f7f8" style="fill: var(--color1, #e7f7f8)" d="M4.4 9.333c0-0.515 0.418-0.933 0.933-0.933h21.333c0.515 0 0.933 0.418 0.933 0.933s-0.418 0.933-0.933 0.933h-21.333c-0.515 0-0.933-0.418-0.933-0.933z"></path>
        <path fill="#e7f7f8" style="fill: var(--color1, #e7f7f8)" d="M4.4 16c0-0.515 0.418-0.933 0.933-0.933h21.333c0.515 0 0.933 0.418 0.933 0.933s-0.418 0.933-0.933 0.933h-21.333c-0.515 0-0.933-0.418-0.933-0.933z"></path>
        <path fill="#e7f7f8" style="fill: var(--color1, #e7f7f8)" d="M4.4 22.666c0-0.515 0.418-0.933 0.933-0.933h21.333c0.515 0 0.933 0.418 0.933 0.933s-0.418 0.933-0.933 0.933h-21.333c-0.515 0-0.933-0.418-0.933-0.933z"></path>
    </symbol>
</svg>